<svg width="25" height="32" viewBox="0 0 25 32" fill="none" xmlns="http://www.w3.org/2000/svg">
<path d="M20.3687 17.039C20.393 14.5999 21.5852 12.3564 23.5195 11.0782C22.9135 10.1515 22.114 9.38942 21.1846 8.85272C20.2553 8.31602 19.2219 8.01952 18.1668 7.98688C15.9284 7.72601 13.7508 9.42165 12.6073 9.42165C11.4395 9.42165 9.67552 8.01296 7.77776 8.05209C6.54996 8.095 5.35344 8.47793 4.3046 9.16364C3.25576 9.84935 2.39032 10.8145 1.7925 11.9651C-0.798675 16.7781 1.13558 23.8346 3.61727 27.7216C4.85812 29.6129 6.29361 31.7389 8.20354 31.6607C10.0526 31.5824 10.7582 30.3955 12.9844 30.3955C15.2107 30.3955 15.8554 31.6607 17.7897 31.6215C19.7848 31.5824 21.0378 29.7042 22.2421 27.7868C23.1302 26.4303 23.8236 24.9303 24.2737 23.352C23.1166 22.827 22.1293 21.9484 21.4349 20.8258C20.7405 19.7031 20.3697 18.3861 20.3687 17.039ZM16.707 5.43037C17.7948 4.03327 18.3316 2.23643 18.2033 0.421696C16.5367 0.617347 15.0039 1.46517 13.909 2.80864C13.3701 3.46549 12.9573 4.22985 12.6943 5.05798C12.4312 5.88611 12.3232 6.76173 12.3762 7.6347C13.2067 7.64361 14.0283 7.44977 14.7786 7.06786C15.5289 6.68595 16.1884 6.12598 16.707 5.43037Z" fill="white"/>
</svg>
